<?xml version="1.0" standalone="no"?><!DOCTYPE svg PUBLIC "-//W3C//DTD SVG 1.1//EN" "http://www.w3.org/Graphics/SVG/1.1/DTD/svg11.dtd"><svg class="icon" width="200px" height="200.00px" viewBox="0 0 1024 1024" version="1.1" xmlns="http://www.w3.org/2000/svg"><path fill="#333333" d="M500.9375 36.3125c133.59375 0 241.875 106.5 241.875 237.84375S634.4375 512 500.9375 512s-241.875-106.5-241.875-237.84375S367.34375 36.3125 500.9375 36.3125z m0 0"  /><path fill="#333333" d="M500.9375 36.3125c133.59375 0 241.875 106.5 241.875 237.84375S634.4375 512 500.9375 512s-241.875-106.5-241.875-237.84375S367.34375 36.3125 500.9375 36.3125z m-90.75 555h201.5625c172.5 0 312.375 137.53125 312.375 307.21875v19.78125c0 66.84375-139.875 69.375-312.375 69.375h-201.5625c-172.5 0-312.375-0.09375-312.375-69.375v-19.78125c0-169.6875 139.875-307.21875 312.375-307.21875z m0 0"  /></svg>