<?xml version="1.0" standalone="no"?><!DOCTYPE svg PUBLIC "-//W3C//DTD SVG 1.1//EN" "http://www.w3.org/Graphics/SVG/1.1/DTD/svg11.dtd"><svg class="icon" width="200px" height="200.00px" viewBox="0 0 1024 1024" version="1.1" xmlns="http://www.w3.org/2000/svg"><path fill="#333333" d="M354.432 311.808c0-58.24 15.36-193.664 157.504-193.664 137.024 0 157.504 121.344 157.504 193.664L669.44 400l118.144 0L787.584 311.808C787.648 122.432 679.488 0 512 0 344.512 0 236.288 122.432 236.288 311.808L236.288 400l118.144 0L354.432 311.808zM787.648 393.856 236.288 393.856C171.072 393.856 118.144 446.72 118.144 512l0 393.792c0 65.28 52.928 118.208 118.144 118.208l551.296 0c65.28 0 118.272-52.928 118.272-118.208L905.856 512C905.856 446.72 852.864 393.856 787.648 393.856zM551.424 737.344l0 89.728c0 21.696-17.728 39.36-39.424 39.36s-39.36-17.664-39.36-39.36l0-89.728c-23.424-13.632-39.36-38.72-39.36-67.84 0-43.456 35.2-78.72 78.72-78.72 43.584 0 78.784 35.328 78.784 78.72C590.72 698.56 574.848 723.712 551.424 737.344z" /></svg>