<?xml version="1.0" standalone="no"?><!DOCTYPE svg PUBLIC "-//W3C//DTD SVG 1.1//EN" "http://www.w3.org/Graphics/SVG/1.1/DTD/svg11.dtd"><svg class="icon" width="200px" height="200.00px" viewBox="0 0 1024 1024" version="1.1" xmlns="http://www.w3.org/2000/svg"><path fill="#333333" d="M513.21583479 6.03276478c-277.30962265 0-504.19874869 226.88912604-504.19874869 504.19874868 0 124.84844537 45.99555323 239.47220673 121.86909143 327.7785528 92.6542895 107.83545511 229.86847998 176.42019589 382.32965726 176.42019589 152.43882223 0 289.63562625-68.56611157 382.28991576-176.37548699 75.89713479-88.31131344 121.90883294-202.95246249 121.90883294-327.8232617 0-277.30962265-226.88912604-504.19874869-504.1987487-504.19874868z m374.32179037 775.05165661c-17.63022165-24.08693638-52.5665239-29.82085579-82.50163685-42.47969368-38.67943458-16.35477458-81.53294317-35.28279715-120.16394301-51.15198396-11.0654599-2.96072473-22.03280877-6.01831894-33.04983392-9.07591194-13.15187734-9.02623566-26.06158097-39.11658762-33.09826989-54.06427393l-21.0144388-3.00915948c1.06804626-23.19772452 15.4332741-24.41107623 21.0144388-42.12574708 4.99870621-15.62701309 0.53402373-35.91369038 8.39534364-50.32735297 5.4842952-10.04584838 17.81154034-10.09428313 23.92548724-18.73304082 5.62959943-7.76445042 9.31808566-21.40191676 11.01702516-30.96341771 3.20289845-17.4712568 5.96988419-41.39674404-2.3298315-58.7226966-4.75653371-9.94897889-7.76445042-10.91891412-9.07591316-23.05242029-1.60206999-14.55896682 4.3678142-62.3627481 4.56155318-72.70044649 0.58245849-26.83777722 0-51.05511446-6.55234268-77.16512897 0 0-7.86256267-23.68331351-20.18856506-30.81687192l-24.55638045-4.22250997-15.18985884-14.07461937c-61.24626588-37.7082566-126.86034717-11.25919888-162.09470957 3.00915948-50.61796022 16.45164407-82.59974789 88.18091259-60.27633064 194.27023621 3.78535572 18.10214881-9.90054415 26.20688399-9.02623688 36.10742814 1.98954796 21.59689728 2.42670099 73.57351222 22.81024778 86.38510361 1.94111321 1.2133505 16.40320933 4.85340319 16.2579063 3.88222642l6.01831896 63.13894435c5.14401044 13.97650834 17.32595257 15.53014359 20.86789301 35.28279715l-15.62701308 3.83379046c-7.03668892 14.94768511-19.89795779 45.03679553-33.04983515 54.06427394-11.01702516 3.05759422-22.03280877 6.11518843-33.00139917 9.07591316-38.63099984 15.86918681-81.53294317 34.79720816-120.26081251 51.15198274-29.88667821 12.65511083-64.80559399 18.38903145-82.46934701 42.45982291-55.24036722-76.15048484-87.84559643-169.74490404-87.84559643-270.83303715 0-254.90051345 207.28177671-462.18104741 462.1810474-462.18104742 254.90051345 0 462.18229017 207.28177671 462.18229018 462.18104742 0.00124155 101.09930943-32.60895505 194.70118032-87.85925705 270.85663376z"  /></svg>