<?xml version="1.0" standalone="no"?><!DOCTYPE svg PUBLIC "-//W3C//DTD SVG 1.1//EN" "http://www.w3.org/Graphics/SVG/1.1/DTD/svg11.dtd"><svg class="icon" width="200px" height="200.00px" viewBox="0 0 1024 1024" version="1.1" xmlns="http://www.w3.org/2000/svg"><path fill="#333333" d="M732.5696 0h-414.72C255.4368 0 204.8 52.9408 204.8 118.1696v787.6608C204.8 971.0592 255.4368 1024 317.9008 1024h414.72c62.464 0 113.0496-52.9408 113.0496-118.1696V118.1696c0-65.2288-50.6368-118.1696-113.1008-118.1696zM487.5264 39.424h75.4176c10.3936 0 18.8416 8.7552 18.8416 19.6608a19.2512 19.2512 0 0 1-18.8416 19.6608H487.5264a19.2512 19.2512 0 0 1-18.8416-19.6608c0-10.9056 8.448-19.712 18.8416-19.712z m37.6832 936.448c-26.624 0-48.128-22.528-48.128-50.3296 0-27.8016 21.504-50.3296 48.128-50.3296s48.2304 22.528 48.2304 50.3296c0 27.8016-21.6064 50.3296-48.2304 50.3296z m245.0432-168.448a19.2512 19.2512 0 0 1-18.8416 19.6608H299.0592a19.2512 19.2512 0 0 1-18.8416-19.712V137.8304c0-10.8544 8.3968-19.6608 18.8416-19.6608h452.352c10.4448 0 18.8416 8.8064 18.8416 19.6608V807.424z" /></svg>